<svg width="34" height="34" viewBox="0 0 34 34" fill="none" xmlns="http://www.w3.org/2000/svg">
<path d="M22.1667 18.275V24.225C22.1667 26.6549 21.6776 28.2257 20.7017 29.2017C19.7257 30.1777 18.1548 30.6667 15.725 30.6667H9.775C7.34514 30.6667 5.77432 30.1777 4.79834 29.2017C3.82236 28.2257 3.33333 26.6549 3.33333 24.225V18.275C3.33333 15.8452 3.82236 14.2744 4.79834 13.2984C5.77432 12.3224 7.34514 11.8334 9.775 11.8334H15.725C18.1548 11.8334 19.7257 12.3224 20.7017 13.2984C21.6776 14.2744 22.1667 15.8452 22.1667 18.275Z" fill="#E3E4EC" stroke="#C0C4D2"/>
<path d="M18.275 3.33337H24.225C26.6549 3.33337 28.2257 3.82241 29.2017 4.79839C30.1776 5.77436 30.6667 7.34519 30.6667 9.77504V15.725C30.6667 17.8635 30.2846 19.3357 29.5272 20.3193C28.782 21.287 27.6061 21.8669 25.8132 22.0711C25.3616 22.1225 24.9375 21.7465 24.9375 21.219V18.275C24.9375 15.2323 24.2318 12.8997 22.6661 11.334C21.1003 9.76823 18.7677 9.06254 15.725 9.06254H12.781C12.2535 9.06254 11.8775 8.63845 11.9289 8.18689C12.1331 6.39395 12.7131 5.21806 13.6808 4.47288C14.6644 3.71543 16.1365 3.33337 18.275 3.33337Z" fill="#E3E4EC" stroke="#C0C4D2"/>
</svg>
