<svg width="150" height="25" viewBox="0 0 150 25" fill="none" xmlns="http://www.w3.org/2000/svg">
<g id="Logo">
<g id="Vector">
<path d="M47.3885 15.8987C47.3885 18.6488 45.1877 20.8782 42.4728 20.8782C39.758 20.8782 37.5572 18.6488 37.5572 15.8987C37.5572 13.1486 39.758 10.9192 42.4728 10.9192C45.1877 10.9192 47.3885 13.1486 47.3885 15.8987Z" fill="#1F1C46"/>
<path d="M82.4228 7.42017C82.4228 5.33125 83.6133 4.37663 85.9942 4.55633V0.378484C83.3662 0.221254 81.3896 0.760331 80.0644 1.99571C78.7391 3.2311 78.0765 5.03925 78.0765 7.42017V7.58863H75.6507V11.7665H78.0765V24.4348H82.4228V11.7665H85.9942V7.58863H82.4228V7.42017Z" fill="#1F1C46"/>
<path d="M3.36923 23.3648C4.96399 24.398 6.92938 24.9146 9.26537 24.9146C11.8035 24.9146 13.8588 24.2745 15.4311 22.9942C17.0258 21.7139 17.8232 19.9843 17.8232 17.8056C17.8232 17.1317 17.7334 16.514 17.5537 15.9525C17.3964 15.3685 17.1943 14.8743 16.9472 14.47C16.7226 14.0657 16.3857 13.6727 15.9364 13.2908C15.4872 12.909 15.0829 12.6057 14.7235 12.3811C14.3866 12.1565 13.8924 11.9207 13.2411 11.6736C12.6121 11.404 12.1068 11.2131 11.7249 11.1008C11.3655 10.966 10.8265 10.7863 10.1077 10.5617C8.35568 10.0227 7.16522 9.5285 6.5363 9.07927C5.92984 8.60758 5.62661 8.00112 5.62661 7.25989C5.62661 6.56358 5.89615 6.00204 6.43522 5.57527C6.99676 5.12604 7.76045 4.90143 8.7263 4.90143C10.7928 4.90143 12.2977 5.9122 13.2411 7.93373L17.1494 5.67635C16.3408 4.0142 15.2064 2.72266 13.7464 1.80174C12.3089 0.858355 10.6355 0.386663 8.7263 0.386663C6.59245 0.386663 4.76184 1.02682 3.23446 2.30712C1.72954 3.56497 0.977076 5.26081 0.977076 7.39466C0.977076 8.47281 1.168 9.41619 1.54984 10.2248C1.93169 11.0334 2.482 11.7073 3.20077 12.2463C3.942 12.763 4.672 13.1785 5.39076 13.493C6.13199 13.8074 7.03046 14.1219 8.08615 14.4363C9.99537 14.9754 11.3206 15.4808 12.0618 15.9525C12.8031 16.4017 13.1737 17.0419 13.1737 17.8729C13.1737 18.5917 12.8704 19.187 12.264 19.6586C11.6575 20.1303 10.7029 20.3662 9.40014 20.3662C6.70476 20.3662 4.89661 19.1645 3.97569 16.7611L0 19.0859C0.651384 20.8828 1.77446 22.3091 3.36923 23.3648Z" fill="#1F1C46"/>
<path d="M34.6387 8.97819C33.4483 7.74281 31.9321 7.12512 30.0903 7.12512C27.7992 7.12512 26.1258 7.91127 25.0701 9.48358V0.858355H20.7238V24.4429H25.0701V15.346C25.0701 13.9534 25.407 12.909 26.0809 12.2127C26.7547 11.5163 27.6532 11.1682 28.7763 11.1682C29.787 11.1682 30.5957 11.4714 31.2021 12.0779C31.8086 12.6619 32.1118 13.5154 32.1118 14.6385V24.4429H39.2985C35.8362 23.2105 33.3575 19.9042 33.3575 16.0189C33.3575 13.7812 34.1797 11.7355 35.5384 10.1675C35.2892 9.73169 34.9893 9.33524 34.6387 8.97819Z" fill="#1F1C46"/>
<path d="M69.9023 7.58863H74.5181L69.1611 24.4348H65.0169L61.9172 14.226L58.8175 24.4348H54.6734L49.3163 7.58863H53.9322L56.796 17.9322L59.862 7.58863H63.9724L67.0384 17.9659L69.9023 7.58863Z" fill="#1F1C46"/>
<path fill-rule="evenodd" clip-rule="evenodd" d="M91.1038 17.7974C91.6878 19.9088 93.2713 20.9645 95.8544 20.9645C97.5165 20.9645 98.7744 20.4029 99.6279 19.2799L103.132 21.3014C101.47 23.7048 99.0215 24.9065 95.787 24.9065C93.0018 24.9065 90.7668 24.0641 89.0822 22.3795C87.3976 20.6949 86.5553 18.5723 86.5553 16.0117C86.5553 13.4735 87.3864 11.3622 89.0485 9.67755C90.7107 7.97048 92.8445 7.11694 95.4501 7.11694C97.9208 7.11694 99.9536 7.97048 101.548 9.67755C103.166 11.3846 103.974 13.496 103.974 16.0117C103.974 16.5732 103.918 17.1685 103.806 17.7974H91.1038ZM91.0364 14.4282H99.6279C99.3808 13.2826 98.8642 12.4291 98.0781 11.8675C97.3144 11.306 96.4384 11.0252 95.4501 11.0252C94.2821 11.0252 93.3162 11.3285 92.5525 11.9349C91.7888 12.5189 91.2835 13.35 91.0364 14.4282Z" fill="#1F1C46"/>
<path d="M113.413 8.06032C112.492 8.5994 111.829 9.40801 111.425 10.4862V7.58863H107.079V24.4348H111.425V16.3823C111.425 14.7651 111.941 13.6083 112.975 12.912C114.03 12.2157 115.221 11.9462 116.546 12.1034V7.25171C115.401 7.25171 114.356 7.52125 113.413 8.06032Z" fill="#1F1C46"/>
<path fill-rule="evenodd" clip-rule="evenodd" d="M137.296 9.57648L141.642 6.46308V24.4348H137.296V22.4469C135.993 24.0866 134.162 24.9065 131.804 24.9065C129.558 24.9065 127.626 24.0529 126.009 22.3458C124.414 20.6163 123.617 18.5049 123.617 16.0117C123.617 13.5185 124.414 11.4183 126.009 9.71125C127.626 7.98171 129.558 7.11694 131.804 7.11694C134.162 7.11694 135.993 7.93679 137.296 9.57648ZM129.277 19.4483C130.153 20.3243 131.265 20.7623 132.613 20.7623C133.96 20.7623 135.072 20.3243 135.948 19.4483C136.847 18.5499 137.296 17.4043 137.296 16.0117C137.296 14.6191 136.847 13.4848 135.948 12.6088C135.072 11.7103 133.96 11.2611 132.613 11.2611C131.265 11.2611 130.153 11.7103 129.277 12.6088C128.401 13.4848 127.963 14.6191 127.963 16.0117C127.963 17.4043 128.401 18.5499 129.277 19.4483Z" fill="#6D67E4"/>
<path d="M145.654 9.94282V24.4348H150V6.82305L145.654 9.94282Z" fill="#6D67E4"/>
<path d="M116.548 24.4617L122.187 20.442V24.4617H116.548Z" fill="#6D67E4"/>
<path d="M150 0L145.654 3.11977V7.13947L150 4.0197V0Z" fill="#6D67E4"/>
</g>
</g>
</svg>
